Coordinates
version=1
nRows=28
nColumns=34
inDegrees=no

Units are S.I. units (second, meters, Newtons, ...)
If the header above contains a line with 'inDegrees', this indicates whether rotational values are in degrees (yes) or radians (no).

endheader
time	pelvis_tilt	pelvis_list	pelvis_rotation	pelvis_tx	pelvis_ty	pelvis_tz	hip_flexion_r	hip_adduction_r	hip_rotation_r	knee_angle_r	ankle_angle_r	subtalar_angle_r	mtp_angle_r	hip_flexion_l	hip_adduction_l	hip_rotation_l	knee_angle_l	ankle_angle_l	subtalar_angle_l	mtp_angle_l	lumbar_extension	lumbar_bending	lumbar_rotation	arm_flex_r	arm_add_r	arm_rot_r	elbow_flex_r	pro_sup_r	arm_flex_l	arm_add_l	arm_rot_l	elbow_flex_l	pro_sup_l
0.964	-0.271523	0.110792	-0.0297878	3.29141	0.935625	0.256654	-0.54995	-0.136586	-0.138498	0.56143	-0.548745	-0.129979	-0.0112973	1.28586	0.0139491	-0.139924	0.98322	0.0220651	-0.122029	-0.318276	0.0805787	-0.208331	0.173557	0.757751	-0.337711	0.0271447	2.17349	1.5708	-1.34158	-0.210166	-0.588743	0.887194	1.5708
0.968	-0.26574	0.113401	-0.0189516	3.32914	0.937414	0.255882	-0.542757	-0.142497	-0.15457	0.652484	-0.559301	-0.129177	-0.0297557	1.24794	0.0292274	-0.140748	0.887754	0.0258346	-0.0503036	-0.377394	0.0645438	-0.215464	0.160234	0.720986	-0.342999	0.0256508	2.19451	1.5708	-1.31545	-0.208266	-0.586393	0.889852	1.5708
0.972	-0.260105	0.110516	-0.00986117	3.3667	0.93923	0.255426	-0.532095	-0.14359	-0.161879	0.746316	-0.566582	-0.127929	-0.0411526	1.2101	0.0383811	-0.141277	0.799315	0.0234403	0.0184393	-0.426367	0.0486664	-0.21551	0.148249	0.679301	-0.347752	0.024194	2.20934	1.5708	-1.28649	-0.208383	-0.578049	0.894357	1.5708
0.976	-0.253006	0.0998798	-0.00357715	3.40415	0.940806	0.255647	-0.518291	-0.135993	-0.158964	0.844278	-0.574528	-0.145192	-0.140443	1.1736	0.0375635	-0.144387	0.723545	0.0160963	0.0815864	-0.462591	0.0313645	-0.206629	0.138149	0.635471	-0.351913	0.0235776	2.21677	1.5708	-1.25629	-0.208763	-0.566359	0.903175	1.5708
0.98	-0.245043	0.0851837	0.00120478	3.44154	0.942074	0.256359	-0.503159	-0.123285	-0.149346	0.941787	-0.581259	-0.149597	-0.209548	1.13932	0.0304835	-0.151353	0.660567	0.00510735	0.137541	-0.495658	0.0136697	-0.192667	0.129464	0.589516	-0.354736	0.0241438	2.21781	1.5708	-1.22605	-0.210847	-0.550824	0.916797	1.5708
0.984	-0.236888	0.0707728	0.00443402	3.47882	0.943067	0.257233	-0.486115	-0.110417	-0.138809	1.04103	-0.577583	-0.159231	-0.228818	1.10662	0.0207679	-0.165133	0.60833	-0.00535297	0.179789	-0.52708	-0.00395595	-0.178623	0.122833	0.542184	-0.356705	0.0239677	2.21112	1.5708	-1.195	-0.214399	-0.53214	0.93414	1.5708
0.988	-0.227209	0.0594212	0.00606659	3.5161	0.943918	0.257885	-0.469812	-0.101988	-0.129916	1.14009	-0.567793	-0.165897	-0.233553	1.07359	0.0117215	-0.185114	0.567422	-0.0100775	0.204937	-0.532205	-0.0230976	-0.166795	0.117016	0.495124	-0.357178	0.0248185	2.19625	1.5708	-1.16279	-0.217745	-0.510169	0.955096	1.5708
0.992	-0.217483	0.0521412	0.00849614	3.55341	0.944582	0.258462	-0.453861	-0.0963856	-0.123458	1.23753	-0.551321	-0.169969	-0.228629	1.04138	0.00622394	-0.210174	0.536772	-0.0113006	0.210003	-0.526161	-0.0421975	-0.159234	0.110632	0.446995	-0.355262	0.0246458	2.17396	1.5708	-1.12974	-0.223515	-0.48587	0.977181	1.5708
0.996	-0.205423	0.0468053	0.0136254	3.59064	0.94517	0.259009	-0.44111	-0.0901992	-0.119644	1.33275	-0.524245	-0.174089	-0.21857	1.00904	0.00411265	-0.236847	0.518406	-0.0111083	0.196722	-0.527151	-0.064445	-0.153559	0.100296	0.401311	-0.350183	0.0252775	2.14347	1.5708	-1.09582	-0.230901	-0.459796	1.00124	1.5708
1	-0.194211	0.0453664	0.0168888	3.62789	0.945552	0.259191	-0.426536	-0.0896688	-0.116809	1.42731	-0.499361	-0.182469	-0.201251	0.980327	0.00319858	-0.264988	0.51287	-0.0118284	0.169198	-0.508093	-0.0850995	-0.151103	0.0910149	0.356757	-0.343984	0.0254963	2.10432	1.5708	-1.05964	-0.238157	-0.433097	1.02449	1.5708
1.004	-0.183797	0.0458209	0.0207506	3.66511	0.945805	0.25919	-0.410816	-0.0923138	-0.116449	1.52003	-0.47608	-0.189934	-0.201432	0.953646	0.00398361	-0.288447	0.515855	-0.0148953	0.136912	-0.487649	-0.105049	-0.15024	0.0808135	0.31325	-0.336297	0.0243291	2.05778	1.5708	-1.02096	-0.24616	-0.405888	1.04618	1.5708
1.008	-0.17442	0.0460015	0.0254947	3.70208	0.945954	0.2594	-0.392467	-0.0927563	-0.115027	1.61139	-0.454199	-0.200095	-0.184406	0.929199	0.00402454	-0.310271	0.52656	-0.0204463	0.103781	-0.437637	-0.124243	-0.149367	0.0698887	0.271686	-0.326301	0.0210914	2.0033	1.5708	-0.979832	-0.255501	-0.378713	1.06755	1.5708
1.012	-0.16732	0.0469307	0.03105	3.73874	0.945906	0.25952	-0.370002	-0.0954354	-0.114847	1.70183	-0.435306	-0.207134	-0.174972	0.907376	0.00419365	-0.329976	0.542381	-0.0320052	0.0756456	-0.425573	-0.141364	-0.148985	0.0573096	0.233263	-0.314525	0.0174825	1.94115	1.5708	-0.9361	-0.264694	-0.351778	1.08686	1.5708
1.016	-0.161718	0.0468305	0.0372776	3.7752	0.945663	0.259672	-0.34443	-0.0963869	-0.113974	1.79049	-0.420163	-0.218659	-0.170767	0.887459	0.00330473	-0.344512	0.563126	-0.0422461	0.0574718	-0.404275	-0.15653	-0.1475	0.0453111	0.196834	-0.301833	0.011215	1.87249	1.5708	-0.889541	-0.276097	-0.322118	1.10416	1.5708
1.02	-0.155491	0.0469996	0.044888	3.81164	0.945374	0.259926	-0.318623	-0.0979387	-0.114479	1.87603	-0.40856	-0.225521	-0.173441	0.866315	0.00308551	-0.352934	0.586084	-0.0524323	0.0523605	-0.403218	-0.172283	-0.146372	0.0312324	0.16453	-0.287338	0.00406223	1.79667	1.5708	-0.841247	-0.288523	-0.292032	1.1205	1.5708
1.024	-0.150613	0.0493272	0.0522131	3.84827	0.94481	0.259747	-0.290677	-0.104174	-0.114655	1.95916	-0.397526	-0.233791	-0.170845	0.844529	0.00543065	-0.356693	0.607904	-0.0610457	0.058612	-0.415078	-0.185277	-0.146925	0.0180013	0.134735	-0.272967	-0.00624615	1.7139	1.5708	-0.790908	-0.302182	-0.258345	1.13535	1.5708
1.028	-0.14744	0.0516285	0.0603743	3.88469	0.943981	0.259172	-0.25916	-0.112046	-0.114107	2.04044	-0.387375	-0.241851	-0.17507	0.823293	0.00984734	-0.353745	0.628401	-0.065331	0.0675905	-0.407354	-0.196251	-0.146483	0.00440298	0.108289	-0.259682	-0.0170089	1.62764	1.5708	-0.736177	-0.314582	-0.224169	1.14611	1.5708
1.032	-0.149572	0.0561983	0.0728498	3.92053	0.942712	0.257608	-0.221073	-0.125335	-0.115129	2.12102	-0.373286	-0.24261	-0.174737	0.807389	0.0236114	-0.338689	0.648534	-0.0640311	0.065789	-0.415335	-0.202424	-0.147042	-0.0130533	0.084944	-0.248029	-0.0289576	1.53718	1.5708	-0.677384	-0.327279	-0.186032	1.1542	1.5708
1.036	-0.154249	0.0571644	0.0866764	3.95604	0.940954	0.256005	-0.177478	-0.135829	-0.113531	2.19938	-0.360313	-0.241282	-0.188382	0.793772	0.0367744	-0.317354	0.672728	-0.0337185	0.0653481	-0.359202	-0.205362	-0.143551	-0.0309146	0.0651985	-0.23759	-0.0420123	1.44354	1.5708	-0.615668	-0.338545	-0.147314	1.16097	1.5708
1.04	-0.161257	0.0533428	0.102497	3.99181	0.938763	0.254929	-0.129467	-0.139802	-0.111734	2.2736	-0.347204	-0.239831	-0.198451	0.783265	0.0478707	-0.293389	0.708979	0.0260946	0.0565433	-0.234401	-0.203824	-0.136239	-0.0497286	0.0476068	-0.22607	-0.0553403	1.34581	1.5708	-0.552911	-0.350626	-0.106503	1.1656	1.5708
1.044	-0.164632	0.0459471	0.115378	4.02806	0.936491	0.254752	-0.0821449	-0.138342	-0.105931	2.34273	-0.335238	-0.239203	-0.213082	0.76723	0.0514698	-0.280115	0.755745	0.108912	0.0375769	-0.101076	-0.204204	-0.126466	-0.0652669	0.0325986	-0.214942	-0.0677602	1.24649	1.5708	-0.48913	-0.3629	-0.0665952	1.17339	1.5708
1.048	-0.166743	0.0362782	0.133844	4.06408	0.934362	0.254528	-0.0351	-0.132389	-0.108873	2.40572	-0.325402	-0.245089	-0.226872	0.751409	0.0561147	-0.25942	0.807422	0.192494	0.0190115	-0.0271269	-0.206414	-0.113594	-0.0861668	0.0207557	-0.20386	-0.0796039	1.14689	1.5708	-0.421783	-0.374806	-0.0257717	1.17923	1.5708
1.052	-0.171884	0.0306553	0.147961	4.10001	0.931952	0.254787	0.0206058	-0.136943	-0.100955	2.46757	-0.316649	-0.23	-0.238596	0.737741	0.0611708	-0.242259	0.852079	0.255098	-0.00448927	0.0195938	-0.205094	-0.106599	-0.104576	0.0103453	-0.192843	-0.0903447	1.0481	1.5708	-0.35305	-0.385499	0.013337	1.18457	1.5708
1.056	-0.172677	0.0241897	0.165483	4.13644	0.929901	0.255339	0.0713527	-0.139007	-0.100801	2.51991	-0.314766	-0.226065	-0.25962	0.719808	0.0622779	-0.225008	0.89402	0.30092	-0.0336225	0.0403785	-0.207585	-0.0980349	-0.126927	0.000661371	-0.181112	-0.10153	0.950388	1.5708	-0.283412	-0.395577	0.0500687	1.19114	1.5708
1.06	-0.170239	0.018349	0.184836	4.17313	0.928203	0.255744	0.11944	-0.142999	-0.103661	2.56398	-0.316902	-0.224555	-0.282619	0.696861	0.0624563	-0.203583	0.934321	0.341247	-0.0462047	0.0476855	-0.21316	-0.0882362	-0.152442	-0.00930157	-0.170987	-0.111991	0.857235	1.5708	-0.213363	-0.403548	0.0840122	1.19886	1.5708
1.064	-0.165677	0.0152753	0.205152	4.21001	0.927128	0.255649	0.165913	-0.152967	-0.108573	2.59958	-0.326294	-0.22941	-0.311797	0.666719	0.0651778	-0.178557	0.966614	0.375379	-0.0498458	0.0364485	-0.22036	-0.0792094	-0.177732	-0.0229095	-0.163306	-0.124495	0.77153	1.5708	-0.139146	-0.408892	0.118945	1.20387	1.5708
1.068	-0.162716	0.0114574	0.228453	4.2464	0.926454	0.255082	0.216438	-0.165303	-0.114449	2.62832	-0.331872	-0.222478	-0.337272	0.634692	0.0676101	-0.150713	0.990732	0.400355	-0.0464865	-0.0123492	-0.225918	-0.0677607	-0.205464	-0.0390086	-0.157098	-0.140931	0.69547	1.5708	-0.0636176	-0.410929	0.150876	1.20952	1.5708
1.072	-0.160094	0.00806663	0.25358	4.28276	0.926454	0.254063	0.268442	-0.180316	-0.12159	2.64937	-0.333095	-0.211641	-0.334402	0.596804	0.0710404	-0.117482	1.00443	0.423263	-0.0382986	-0.0480084	-0.230666	-0.0555138	-0.234807	-0.0575753	-0.152676	-0.157785	0.627558	1.5708	0.0119213	-0.408924	0.178918	1.21449	1.5708
